<svg xmlns="http://www.w3.org/2000/svg" viewBox="0 0 107.6 36.7"><path d="M103.7 29.2c-.9 2.2-2.1 2.9-3.3 2.9-.4 0-.7-.1-1.1-.1v-1.6c.3.1.6.1.8.1.9 0 1.6-.6 2.1-1.9l.2-.4-3.9-8.4h2l2.8 6.3 2.5-6.3h1.9l-4 9.4zm-8-6.3c0-1.1-.6-1.7-1.6-1.7-.9 0-1.6.6-2.1 1.1v5.8h-1.8V23c0-1.1-.6-1.7-1.6-1.7s-1.8.7-2.2 1.3v5.6h-1.8v-8.3h1.6v1c.4-.5 1.4-1.3 2.8-1.3 1.2 0 2.1.5 2.6 1.3.7-.7 1.7-1.3 2.9-1.3 2.2 0 3.1 1.6 3.1 3.3v5.2h-1.8l-.1-5.2zm-19.3 1.7c.2 1.5 1.7 2.1 3.2 2.1 1 0 1.9-.2 2.6-.6v1.6c-.8.4-1.8.6-3 .6-2.5 0-4.7-1.5-4.7-4.4 0-3 2.3-4.4 4.2-4.4 3.3 0 4.4 2.7 3.9 5.1h-6.2zm2.4-3.5c-1.2 0-2.4.7-2.4 2.1H81c0-.7-.4-2.1-2.2-2.1zM71 26.8c-.6.8-1.6 1.5-3.2 1.5-2.5 0-4.1-2-4.1-4.4s1.6-4.4 4.1-4.4c1.5 0 2.4.6 3 1.3V16h1.8v12.1H71v-1.3zm-.2-3.9c-.4-.9-1.3-1.7-2.6-1.7-1.5 0-2.6 1.1-2.6 2.7s1.1 2.7 2.6 2.7c1.3 0 2.2-.8 2.6-1.7v-2zm0-21.5h1.8v12.1h-1.8V1.4zm-4.5 7c0-1.1-.6-1.7-1.6-1.7-.9 0-1.6.6-2.1 1.1v5.8h-1.8V8.4c0-1.1-.6-1.7-1.6-1.7S57.4 7.4 57 8v5.6h-1.8V5.2h1.6v1c.4-.4 1.3-1.2 2.7-1.2 1.2 0 2.1.5 2.6 1.3.7-.7 1.7-1.3 2.9-1.3 2.2 0 3.1 1.6 3.1 3.3v5.2h-1.8V8.4zm-8.5 12.8c-1.2 0-2.2.3-3 .6v-1.7c.7-.2 1.8-.6 3.2-.6 2.4 0 3.8 1.1 3.8 3.6v3c0 .5.3.6.6.6.2 0 .4-.1.6-.1V28c-.3.1-.8.2-1.2.2-.8 0-1.4-.3-1.7-1-.8.7-1.8 1.1-3.1 1.1-1.5 0-2.9-.8-2.9-2.5 0-2.1 2-2.8 3.7-2.8.7 0 1.5.1 2.2.2v-.3c0-1-.8-1.7-2.2-1.7zm.4 3.1c-1.1 0-2.2.3-2.2 1.4 0 .8.7 1.2 1.6 1.2.9 0 1.7-.3 2.4-1v-1.4c-.5-.1-1.2-.2-1.8-.2zM47.9 11V6.9h-1.5V5.2h1.5V2.7l1.8-.4v3h3v1.6h-3v3.8c0 1.1.5 1.5 1.6 1.5.6 0 1.2-.1 1.7-.3v1.6c-.6.2-1.4.4-2.2.4-1.7-.2-2.9-.9-2.9-2.9zm2.4 8.5c.9 0 1.8.2 2.6.6v1.7c-.6-.4-1.5-.7-2.3-.7-1.5 0-3 .8-3 2.7 0 1.9 1.4 2.7 2.9 2.7.9 0 1.8-.3 2.4-.6v1.7c-.8.4-1.7.6-2.7.6-2.2 0-4.5-1.3-4.5-4.3s2.4-4.4 4.6-4.4zm-8.2 7.7c-.8.7-1.8 1.1-3.1 1.1-1.5 0-2.9-.8-2.9-2.5 0-2.1 2-2.8 3.7-2.8.7 0 1.5.1 2.2.2v-.3c0-1-.8-1.8-2.2-1.8-1.2 0-2.2.3-3 .6V20c.7-.2 1.8-.6 3.2-.6 2.3 0 3.8 1.1 3.8 3.6v3c0 .5.3.6.6.6.2 0 .4-.1.6-.1V28c-.3.1-.8.2-1.2.2-.8 0-1.4-.3-1.7-1zm-.1-2.7c-.5-.1-1.2-.2-1.8-.2-1.1 0-2.2.3-2.2 1.4 0 .8.7 1.2 1.6 1.2.9 0 1.7-.3 2.4-1v-1.4zm.8-15.9c0-1.3-.8-2-1.9-2-1.1 0-1.8.7-2.3 1.4v5.5h-1.8V1.4h1.8v4.7c.6-.6 1.5-1.1 2.6-1.1 2.1 0 3.4 1.4 3.4 3.4v5.1h-1.8V8.6zM0 28.1V1.5L14.5 0h.2L29 1.5V28l-14.5 8.6L0 28.1zM27.1 3.2L14.5 1.9 1.9 3.2v10l12.5-7.5 12.7 7.5v-10zm-12.7 15l3.2 1.9 1-.7-4.2-2.5v-1.3l5.3 3.2.9-.5.1-.1h.1l-6.5-3.9V13l7.6 4.5 1.6-.9 3.4-2-12.5-7.5-12.5 7.5L14.4 22l2.1-1.3-2.1-1.2v-1.3zm12.7-2.3l-3.9 2.3v5.5l-8.7 5.2-8.6-5.2v-1.3l8.6 5.1v-1.4l-8.6-5.2v-1.3l8.6 5.1v-1.4L1.9 16.1V27l12.6 7.5L27.1 27V15.9z" fill="#fff"/></svg>