<svg width="45" height="31" fill="none" xmlns="http://www.w3.org/2000/svg"><path d="M14.274 22.777l-2.594 5.55H9.563l-1.147-2.914-1.393 2.914H4.801l-2.33-5.55h-.807v-1.923h4.765v1.923h-.65l.987 2.419.831-1.844-.223-.575H6.97v-1.923h4.115v1.923h-.648l.924 2.26 1-2.26h-.735v-1.923h3.361v1.923h-.713zm8.732 3.44a3.63 3.63 0 0 1-.902 1.242c-.383.338-.83.6-1.341.784-.51.18-1.056.273-1.637.273a4.87 4.87 0 0 1-1.638-.273 4.123 4.123 0 0 1-1.34-.784 3.63 3.63 0 0 1-.903-1.242c-.22-.488-.329-1.041-.329-1.65 0-.611.11-1.165.329-1.652.22-.49.52-.903.904-1.242.383-.34.83-.6 1.34-.783a4.812 4.812 0 0 1 1.637-.275c.58 0 1.128.092 1.637.275.51.184.958.443 1.34.783.382.339.684.753.903 1.242.22.487.331 1.04.331 1.651a3.98 3.98 0 0 1-.331 1.65zm-3.114-2.618c0-.32-.06-.585-.182-.8-.12-.21-.315-.32-.584-.32-.276 0-.473.11-.59.32-.117.215-.176.48-.176.8v1.934c0 .32.059.585.175.799.118.212.315.317.591.317.27 0 .464-.105.584-.317.121-.214.182-.48.182-.799V23.6zm9.21 4.728v-1.922h.543l-1.062-1.261-.672.427v.834h.649v1.922h-4.71v-1.922h.87v-3.638h-.87v-1.923h4.816v1.923h-.755v1.576l2.329-1.576h-1.031v-1.923h4.231v1.923h-1.106l-1.37.883 2.305 2.755h.82v1.922h-4.986zM0 1.069L.012 0h44.361v1.069H0zM.012 31L0 29.931h44.373V31H.012zM8.925 2.674c1.166 0 2.562.117 2.562 2.031 0 1.005-.168 1.443-.71 1.806-.518.354-1.32.557-2.797.557H6.712v3.089H3.605V2.674h5.32zM7.437 5.7c.26 0 .711 0 .945-.226.181-.182.194-.512.194-.63 0-.16-.013-.428-.206-.598-.222-.204-.583-.204-.829-.204h-.829V5.7h.725zm7.999-3.027v7.483h-3.107V2.673h3.107zm8.374 1.539l-3.768 4.533h3.87v1.411h-7.636V8.724l3.781-4.533v-.085h-3.406V2.673h7.158v1.54zm8.41 0l-3.767 4.533h3.87v1.411h-7.635V8.724l3.779-4.533v-.085h-3.403V2.673h7.156v1.54zm6.963-1.539l2.276 7.483h-3.325l-.272-.93h-2.5l-.269.93h-2.317l2.278-7.483h4.129zm-1.71 5.185l-.866-2.96-.842 2.96h1.709zM7.88 18.102a2.4 2.4 0 0 1-.728.764 3.44 3.44 0 0 1-1.085.475 5.08 5.08 0 0 1-1.324.168c-.644 0-1.238-.1-1.78-.295a3.21 3.21 0 0 1-1.325-.863L.425 19.51H.278v-3.574h.147c.3.367.602.683.91.949a6 6 0 0 0 .919.657c.307.175.596.302.873.386.278.08.531.125.767.125.312 0 .54-.053.69-.161a.483.483 0 0 0 .222-.409c0-.146-.107-.267-.323-.365a6.285 6.285 0 0 0-.813-.282 35.11 35.11 0 0 1-1.052-.325 4.721 4.721 0 0 1-1.053-.495 2.745 2.745 0 0 1-.814-.788c-.217-.318-.326-.72-.326-1.207 0-.324.09-.635.266-.928.178-.292.422-.549.73-.768a3.9 3.9 0 0 1 1.08-.524c.41-.129.849-.194 1.317-.194a3.86 3.86 0 0 1 1.526.315c.224.095.422.21.595.343.174.135.323.276.442.428l.99-1.086h.147v3.163H7.37c-.483-.586-.984-1.033-1.505-1.343-.52-.309-1.019-.462-1.494-.462-.313 0-.542.052-.69.157a.484.484 0 0 0-.223.412c0 .11.065.21.2.292.135.085.313.163.532.235.22.073.47.15.75.224.28.077.568.167.862.27.292.103.581.227.862.37.278.143.528.313.747.513.22.199.398.433.533.704.135.268.202.587.202.953 0 .372-.089.709-.266 1.007zm9.537-5.2v3.703c0 .457-.115.867-.344 1.232a2.97 2.97 0 0 1-.916.911 4.44 4.44 0 0 1-1.302.564c-.489.13-.99.196-1.5.196s-1.014-.066-1.515-.196c-.5-.13-.946-.316-1.338-.564a3.076 3.076 0 0 1-.952-.911 2.183 2.183 0 0 1-.362-1.232v-3.703l-1.207-1.005v-.14h5.476v.14l-.993 1.005v3.943c0 .119.033.23.1.333a.955.955 0 0 0 .27.265 1.585 1.585 0 0 0 .852.238 1.662 1.662 0 0 0 .862-.238.939.939 0 0 0 .269-.265.596.596 0 0 0 .102-.334v-3.942l-1.048-1.005v-.14h4.71v.14l-1.164 1.005zm8.688 5.2c-.178.3-.42.553-.729.764a3.421 3.421 0 0 1-1.084.474 5.076 5.076 0 0 1-1.323.169 5.23 5.23 0 0 1-1.782-.295 3.23 3.23 0 0 1-1.325-.864l-1.21 1.159h-.15v-3.574h.15c.298.367.6.683.91.95.306.265.614.482.919.657a4.2 4.2 0 0 0 .87.385c.277.081.532.125.767.125.312 0 .542-.053.693-.16a.485.485 0 0 0 .222-.41c0-.146-.11-.266-.325-.364a6.207 6.207 0 0 0-.814-.283 34.346 34.346 0 0 1-1.052-.325 4.718 4.718 0 0 1-1.054-.495 2.747 2.747 0 0 1-.813-.788c-.216-.318-.324-.72-.324-1.207 0-.324.089-.634.265-.928a2.62 2.62 0 0 1 .73-.768 3.912 3.912 0 0 1 1.08-.524 4.36 4.36 0 0 1 1.318-.194c.275 0 .543.03.804.086.258.054.5.132.72.23.223.095.424.21.596.343.175.134.32.275.442.427l.99-1.086h.148v3.163h-.148c-.482-.585-.983-1.032-1.505-1.342-.523-.31-1.02-.463-1.495-.463-.312 0-.543.052-.692.157a.487.487 0 0 0-.222.412c0 .11.067.21.201.293.134.084.313.162.533.234.22.074.47.15.748.224.282.077.57.167.862.27.294.103.582.227.861.37.28.143.53.314.75.514.22.198.397.432.533.703.134.269.202.588.202.953 0 .373-.09.71-.267 1.008zm6.094 1.138v-.117l.892-.963v-2.114h-2.189v2.114l.892.963v.118h-5.359v-.118l1.19-.963v-5.3l-1.19-.963v-.14h5.359v.14l-.892.963v1.965h2.188V12.86l-.891-.963v-.14h5.359v.14l-1.193.963v5.3l1.193.963v.118h-5.36zm5.741 0v-.117l1.179-.963v-5.3l-1.179-.963v-.14h5.657v.14l-1.193.963v5.3l1.193.963v.118H37.94z" fill="#fff"/><path fill-rule="evenodd" clip-rule="evenodd" d="M38.735 28.595c2.348 0 4.252-1.795 4.252-4.01 0-2.213-1.904-4.008-4.252-4.008-2.35 0-4.253 1.795-4.253 4.009 0 2.214 1.903 4.009 4.253 4.009zm3.159-5.216v2.435c0 .03-.024.05-.054.05h-.527c-.031 0-.053-.02-.06-.05l-.041-.272a1.137 1.137 0 0 1-.847.397c-.557 0-.924-.308-.924-.787V23.38c0-.027.024-.05.052-.05h.593a.05.05 0 0 1 .052.05v1.663c0 .284.186.415.447.415.355 0 .603-.25.603-.577V23.38c0-.027.029-.05.059-.05h.593c.03 0 .053.023.053.05zm-2.91.706c0-.254-.067-.488-.261-.65a.75.75 0 0 0-.473-.16.845.845 0 0 0-.701.366l-.034-.262a.06.06 0 0 0-.06-.05h-.534c-.03 0-.054.023-.054.05v2.436c0 .029.024.05.054.05h.599c.029 0 .053-.021.053-.05v-1.49c0-.45.284-.583.462-.583.255 0 .303.216.32.372.006.027.03.05.053.05h.013l.516-.023c.024 0 .047-.027.047-.056zm-2.786 1.04v.69c0 .029-.025.05-.054.05h-.73c-.026 0-.052-.021-.052-.05v-.69c0-.029.026-.05.053-.05h.729c.03 0 .054.021.054.05z" fill="#fff"/></svg>