<svg xmlns="http://www.w3.org/2000/svg" width="551.911" height="551.912"><path d="M397.085 187.841a85.055 85.055 0 0 0 6.98-33.798c0-26.654-12.218-50.442-31.356-66.112.029-.842.13-1.664.13-2.524C372.839 38.234 334.596 0 287.428 0c-43.394 0-79.147 32.397-84.606 74.313-32.128 12.262-54.987 43.288-54.987 79.73a85.196 85.196 0 0 0 6.978 33.798h242.272zM284.745 10.592c36.517-3.742 69.622 26.303 73.79 66.972a6.061 6.061 0 0 1-5.415 6.638c-3.327.346-6.295-2.08-6.644-5.405C343 44.763 315.853 19.574 285.974 22.63c-3.334.346-6.295-2.083-6.641-5.405a6.056 6.056 0 0 1 5.412-6.633zm-71.264 71.807a6.058 6.058 0 0 1 7.77 3.591c1.149 3.139-.452 6.62-3.594 7.77-32.104 11.816-49.784 44.36-39.416 72.546 1.156 3.142-.446 6.623-3.588 7.772a6.05 6.05 0 0 1-7.772-3.582c-12.667-34.454 8.231-73.976 46.6-88.097zm-84.793 118.934l146.36 348.404.907 2.175 147.268-350.579H128.688zM260.517 297.5l28.886 29.607-36.011 35.146-28.889-29.607 36.014-35.146zm-40.607 30.429l-30.435-31.186 36.008-35.139 30.432 31.191-36.005 35.134zm74.091 3.89l29.896 30.642-36.008 35.145-29.906-30.646 36.018-35.141zm-.934-8.287l-28.889-29.613 37.223-36.321 28.88 29.607-37.214 36.327zm11.999-69.505l38.455-37.513 28.88 29.596-38.449 37.524-28.886-29.607zm-33.337-37.551h62.394l-33.668 32.843-30.425-31.176 1.699-1.667zm25.074 36.413l-37.22 36.325-30.431-31.18 37.217-36.334 30.434 31.189zm-97.927-36.413h62.397l.502.52-37.22 36.328-30.934-31.708 5.255-5.14zm-9.431 0l-.428.425-.414-.425h.842zm-37.973 0h29.979l3.901 4.001-22.836 22.292-11.044-26.293zm30.467 72.543l-16.686-39.727 24.695-24.101 30.94 31.706-36.005 35.142-2.944-3.02zm5.399 12.856l28.907 29.625-11.68 11.396-17.227-41.021zm19.975 47.546l13.527-13.211 28.889 29.607-25.204 24.594-17.212-40.99zm35.867 85.381l-15.906-37.871 27.054-26.403 29.908 30.647-37.835 36.919-3.221-3.292zm5.4 12.856l29.699 30.429-11.99 11.709-17.709-42.138zm27.375 65.16l-6.936-16.497 13.858-13.518 3.972 4.078-10.894 25.937zM289 481.751l-2.464-2.524 5.976-5.834-3.512 8.358zm10.061-23.945l-17.129 16.71-30.938-31.717 37.835-36.919 22.401 22.957-12.169 28.969zm14.328-34.081L292.5 402.31l36.008-35.145 6.029 6.188-21.148 50.372zm23.299-55.484l-4.521-4.646 10.977-10.711-6.456 15.357zm12.993-30.925l-22.106 21.574-29.908-30.642 37.226-36.339 23.667 24.27-8.879 21.137zm11.029-26.256l-22.165-22.715L377 250.82l6.301 6.458-22.591 53.782zm24.742-58.904l-4.793-4.915 11.626-11.337-6.833 16.252zm-9.386-9.616l-25.435-26.063h49.811l-1.62 3.856-22.756 22.207z"/></svg>