<svg xmlns="http://www.w3.org/2000/svg" viewBox="0 0 980 980"><g fill="#FFF"><path d="M553 441c10.7-4.8 12.3-6.6 18-20 4.4-9.5 2-26.2 2-38 0-25.1-10-37.7-24-46-14-8.3-23.2-14-51.9-14l-40.1 2v122h52c19.7 0 33.3-1.2 44-6zm14 100c-13.8-11.3-24.3-17-51.8-17l-54.2-1v144l56 2c53.4 0 70-16.9 70-66 0-25.1-6.2-50.7-20-62z"/><path d="M490 0C219.4 0 0 219.4 0 490s219.4 490 490 490 490-219.4 490-490S760.6 0 490 0zm171.2 678.4C650 700.7 635 717.2 616 727.8c-11.9 6.3-25.5 10.8-41 13.4-15.4 2.6-33.4 3.9-54 3.9H401.9c-17.2 0-29.5-4.9-36.8-14.8-7.4-9.8-11-25.5-11-47V309.1c0-22 3.8-37.7 11.3-47.4 7.5-9.6 19.7-14.4 36.6-14.4h126.4c18.6 0 34.8 1.5 48.4 4.4 13.7 2.9 25.9 8.6 36.7 17 9.2 7 17.4 15.9 24.5 26.7 7.1 10.8 12.5 22.6 16.2 35.7 3.7 13 5.6 26.8 5.6 41.3 0 49.8-19.5 86.3-58.5 109.3 51.2 20.8 76.9 61.4 76.9 121.6-.2 27.7-5.8 52.8-17 75.1z"/></g></svg>