<svg xmlns="http://www.w3.org/2000/svg" viewBox="0 0 112.2 112.2"><g fill="#FFF"><path d="M72 41.8h8.4c.8 0 1.5-.7 1.5-1.5v-8.5c0-.9-.7-1.5-1.5-1.5H72c-.8 0-1.5.6-1.5 1.5v8.5c0 .8.7 1.5 1.5 1.5z"/><path d="M56.1 0C25.1 0 0 25.1 0 56.1s25.1 56.1 56.1 56.1 56.1-25.1 56.1-56.1S87.1 0 56.1 0zm33.6 79.1c0 5.9-4.8 10.6-10.6 10.6h-46c-5.9 0-10.6-4.8-10.6-10.6v-46c0-5.9 4.8-10.6 10.6-10.6h46c5.9 0 10.6 4.7 10.6 10.6v46z"/><path d="M56.1 67.9c6.5 0 11.8-5.3 11.8-11.8 0-2.1-.5-4.1-1.5-5.8-.2-.4-.4-.7-.7-1.1-2.2-2.9-5.6-4.9-9.6-4.9s-7.4 1.9-9.6 4.9c-.2.3-.5.7-.7 1.1-1 1.7-1.5 3.7-1.5 5.8 0 6.5 5.3 11.8 11.8 11.8z"/><path d="M73.8 51.1c.5 1.6.7 3.3.7 5 0 10.2-8.3 18.4-18.4 18.4-10.2 0-18.4-8.3-18.4-18.4 0-1.7.2-3.4.7-5 .2-.7.5-1.3.7-1.9h-10v27.5c0 3.5 2.9 6.4 6.4 6.4h41.2c3.5 0 6.4-2.8 6.4-6.4V49.2h-10c.3.6.5 1.3.7 1.9z"/></g></svg>