<svg xmlns="http://www.w3.org/2000/svg" viewBox="0 0 980 980"><path fill="#FFF" d="M490 0C219.4 0 0 219.4 0 490s219.4 490 490 490 490-219.4 490-490S760.6 0 490 0zm246.2 633.6c-3.6 7-15.8 10.5-20 10.8h-76.6c-5.3 0-16.4-1.4-29.9-10.7-10.4-7.2-20.6-19.1-30.5-30.7-14.9-17.3-27.7-32.2-40.7-32.2-1.6 0-3.3.3-4.8.8-9.8 3.2-22.4 17.1-22.4 54.4 0 11.6-9.2 18.3-15.7 18.3h-35.1c-11.9 0-74.2-4.2-129.3-62.3-67.5-71.2-128.2-214-128.7-215.3-3.8-9.2 4.1-14.2 12.7-14.2h77.3c10.3 0 13.7 6.3 16 11.8 2.8 6.5 12.9 32.3 29.5 61.3 26.9 47.3 43.4 66.5 56.6 66.5 2.5 0 4.8-.7 7.1-1.8 17.3-9.6 14-71.1 13.3-83.9 0-2.4-.1-27.5-8.9-39.6-6.3-8.7-17.1-12-23.6-13.3 1.7-2.5 5.5-6.3 10.2-8.6 11.8-5.9 33.2-6.8 54.4-6.8h11.8c23 .3 28.9 1.8 37.2 3.9 16.8 4 17.2 14.9 15.7 52.1-.5 10.6-.9 22.5-.9 36.6 0 3.1-.2 6.3-.2 9.8-.5 18.9-1.1 40.4 12.3 49.3 1.7 1.1 3.7 1.7 5.8 1.7 4.6 0 18.6 0 56.5-65 16.6-28.7 29.5-62.5 30.4-65 .8-1.3 3-5.4 5.7-7 2.1-1.2 4.9-1.5 6.3-1.5h90.9c9.9 0 16.7 1.5 18 5.3 2.2 6.1-.4 24.6-41.9 80.8-7 9.3-13.2 17.4-18.5 24.4-37.7 49.4-37.7 51.9 2.2 89.3 0 0 43.3 42.8 54 62.6.3.4.5.8.6 1 4.3 7.3 5.4 13 3.2 17.2z"/><path d="M527 739.1H407.9c-17.2 0-29.5-4.9-36.8-14.8-7.4-9.8-11-25.5-11-47V303.1c0-22 3.8-37.7 11.3-47.4 7.5-9.6 19.7-14.4 36.6-14.4h126.4c18.6 0 34.8 1.5 48.4 4.4 13.7 2.9 25.9 8.6 36.7 17 9.2 7 17.4 15.9 24.5 26.7 7.1 10.8 12.5 22.6 16.2 35.7 3.7 13 5.6 26.8 5.6 41.3 0 49.8-19.5 86.3-58.5 109.3 51.2 20.8 76.9 61.4 76.9 121.6 0 27.8-5.6 52.9-16.8 75.2-11.2 22.3-26.2 38.8-45.2 49.4-11.9 6.3-25.5 10.8-41 13.4-15.6 2.5-33.6 3.8-54.2 3.8zM463 319v122h52c19.7 0 33.3-1.2 44-6 10.7-4.8 12.3-6.6 18-20 4.4-9.5 2-26.2 2-38 0-25.1-10-37.7-24-46-14-8.3-23.2-14-51.9-14l-40.1 2zm58.2 199l-54.2-1v144l56 2c53.4 0 70-16.9 70-66 0-25.1-6.2-50.7-20-62-13.8-11.3-24.3-17-51.8-17z"/></svg>