<svg xmlns="http://www.w3.org/2000/svg" viewBox="0 0 512 512"><path fill="#FFF" d="M256 0C114.6 0 0 114.6 0 256s114.6 256 256 256 256-114.6 256-256S397.4 0 256 0zm147.1 180.5c.1 3.3.2 6.5.2 9.8 0 100.3-76.4 216-216 216-42.9 0-82.8-12.6-116.4-34.1 5.9.7 12 1.1 18.1 1.1 35.6 0 68.3-12.1 94.3-32.5-33.2-.6-61.2-22.6-70.9-52.7 4.6.9 9.4 1.4 14.3 1.4 6.9 0 13.6-.9 20-2.7-34.7-7-60.9-37.7-60.9-74.4v-1c10.2 5.7 21.9 9.1 34.4 9.5-20.4-13.6-33.8-36.8-33.8-63.2 0-13.9 3.7-27 10.3-38.2 37.4 45.9 93.4 76.1 156.5 79.3-1.3-5.6-2-11.4-2-17.3 0-41.9 34-75.9 75.9-75.9 21.8 0 41.6 9.2 55.4 24 17.3-3.4 33.5-9.7 48.2-18.4-5.7 17.7-17.7 32.6-33.4 42 15.4-1.8 30-5.9 43.6-12-10.1 15.3-22.9 28.6-37.8 39.3z"/></svg>